<svg xmlns="http://www.w3.org/2000/svg" xmlns:xlink="http://www.w3.org/1999/xlink"><symbol id="icon-close" viewBox="0 0 20 20"><g fill="none"><path d="M.293 18.291a1 1 0 101.414 1.414L10 11.413l8.292 8.292a1 1 0 101.414-1.414l-8.292-8.292 8.292-8.292A1 1 0 1018.291.293L9.999 8.585 1.707.293A1 1 0 10.293 1.707L8.585 10 .293 18.291z"/></g></symbol><symbol id="tick" viewBox="0 0 288.941 288.941"><g fill="#ffffff"><g><path id="Check" d="M285.377,46.368c-4.74-4.704-12.439-4.704-17.179,0L96.309,217.114L20.734,142.61
c-4.74-4.704-12.439-4.704-17.179,0s-4.74,12.319,0,17.011l84.2,82.997c4.692,4.644,12.499,4.644,17.191,0l180.43-179.239
C290.129,58.687,290.129,51.06,285.377,46.368C280.637,41.664,290.129,51.06,285.377,46.368z"/><g/><g/><g/><g/><g/><g/></g></g></symbol></svg>